<svg width="216" height="220" viewBox="0 0 216 220" fill="none" xmlns="http://www.w3.org/2000/svg">
<path d="M170.065 220C162.3 220 155.335 215.224 152.538 207.98C149.74 200.737 142.776 195.961 135.011 195.961H106.667C91.6506 195.961 81.1302 181.135 86.0884 166.961L86.8961 164.652C89.4717 157.289 96.4199 152.359 104.22 152.359C117.112 152.359 125.986 139.417 121.341 127.392L89.7081 45.5025C81.2419 23.586 97.4155 0 120.91 0C134.602 0 146.912 8.34442 151.982 21.063L212.554 173.007C221.531 195.528 204.942 220 180.698 220H170.065ZM32.713 220C9.90398 220 -5.89063 197.227 2.10154 175.864L35.2823 87.1723C45.2585 60.506 82.9903 60.5424 92.9151 87.2279C95.3444 93.7599 95.4833 100.923 93.3091 107.545L63.7652 197.513C59.3594 210.93 46.8348 220 32.713 220Z" fill="white"/>
</svg>
