<svg width="948" height="226" viewBox="0 0 948 226" fill="none" xmlns="http://www.w3.org/2000/svg">
<mask id="path-1-outside-1_33_12" maskUnits="userSpaceOnUse" x="-1" y="0" width="949" height="226" fill="black">
<rect fill="white" x="-1" width="949" height="226"/>
<path d="M173.065 223C165.3 223 158.335 218.224 155.538 210.98C152.74 203.737 145.776 198.961 138.011 198.961H109.667C94.6506 198.961 84.1302 184.135 89.0883 169.961L89.8961 167.652C92.4717 160.289 99.4199 155.359 107.22 155.359C120.112 155.359 128.986 142.417 124.341 130.392L92.7081 48.5025C84.2419 26.586 100.416 3 123.91 3C137.602 3 149.912 11.3444 154.982 24.063L215.554 176.007C224.531 198.528 207.942 223 183.698 223H173.065ZM35.713 223C12.904 223 -2.89063 200.227 5.10154 178.864L38.2823 90.1723C48.2585 63.506 85.9903 63.5424 95.9151 90.2279C98.3444 96.7599 98.4833 103.923 96.3091 110.545L66.7652 200.513C62.3594 213.93 49.8348 223 35.713 223Z"/>
<path d="M271.2 155.4C265.013 155.4 259.76 154.227 255.44 151.88C251.173 149.48 247.92 146.307 245.68 142.36C243.493 138.36 242.4 133.96 242.4 129.16C242.4 125.16 243.013 121.507 244.24 118.2C245.467 114.893 247.44 111.987 250.16 109.48C252.933 106.92 256.64 104.787 261.28 103.08C264.48 101.907 268.293 100.867 272.72 99.96C277.147 99.0534 282.16 98.2 287.76 97.4C293.36 96.5467 299.52 95.6134 306.24 94.6L298.4 98.92C298.4 93.8 297.173 90.04 294.72 87.64C292.267 85.24 288.16 84.04 282.4 84.04C279.2 84.04 275.867 84.8134 272.4 86.36C268.933 87.9067 266.507 90.6534 265.12 94.6L245.44 88.36C247.627 81.2134 251.733 75.4 257.76 70.92C263.787 66.44 272 64.2 282.4 64.2C290.027 64.2 296.8 65.3734 302.72 67.72C308.64 70.0667 313.12 74.12 316.16 79.88C317.867 83.08 318.88 86.28 319.2 89.48C319.52 92.68 319.68 96.2534 319.68 100.2V153H300.64V135.24L303.36 138.92C299.147 144.733 294.587 148.947 289.68 151.56C284.827 154.12 278.667 155.4 271.2 155.4ZM275.84 138.28C279.84 138.28 283.2 137.587 285.92 136.2C288.693 134.76 290.88 133.133 292.48 131.32C294.133 129.507 295.253 127.987 295.84 126.76C296.96 124.413 297.6 121.693 297.76 118.6C297.973 115.453 298.08 112.84 298.08 110.76L304.48 112.36C298.027 113.427 292.8 114.333 288.8 115.08C284.8 115.773 281.573 116.413 279.12 117C276.667 117.587 274.507 118.227 272.64 118.92C270.507 119.773 268.773 120.707 267.44 121.72C266.16 122.68 265.2 123.747 264.56 124.92C263.973 126.093 263.68 127.4 263.68 128.84C263.68 130.813 264.16 132.52 265.12 133.96C266.133 135.347 267.547 136.413 269.36 137.16C271.173 137.907 273.333 138.28 275.84 138.28Z"/>
<path d="M342.081 153V35.4H363.841V153H342.081Z"/>
<path d="M439.665 153C433.692 154.12 427.825 154.6 422.065 154.44C416.358 154.333 411.238 153.347 406.705 151.48C402.225 149.56 398.812 146.493 396.465 142.28C394.332 138.333 393.212 134.333 393.105 130.28C392.998 126.173 392.945 121.533 392.945 116.36V42.6H414.705V115.08C414.705 118.44 414.732 121.48 414.785 124.2C414.892 126.867 415.452 129 416.465 130.6C418.385 133.64 421.452 135.293 425.665 135.56C429.878 135.827 434.545 135.613 439.665 134.92V153ZM378.225 83.4V66.6H439.665V83.4H378.225Z"/>
<path d="M458.919 153V66.6H478.119V87.72L476.039 85C477.159 82.0134 478.652 79.2934 480.519 76.84C482.385 74.3867 484.679 72.36 487.399 70.76C489.479 69.48 491.745 68.4934 494.199 67.8C496.652 67.0534 499.185 66.6 501.799 66.44C504.412 66.2267 507.025 66.28 509.639 66.6V86.92C507.239 86.1734 504.439 85.9334 501.239 86.2C498.092 86.4134 495.239 87.1334 492.679 88.36C490.119 89.5334 487.959 91.1067 486.199 93.08C484.439 95 483.105 97.2934 482.199 99.96C481.292 102.573 480.839 105.533 480.839 108.84V153H458.919Z"/>
<path d="M557.016 155.56C550.243 155.56 544.723 154.413 540.456 152.12C536.19 149.827 532.856 146.92 530.456 143.4C528.11 139.88 526.43 136.227 525.416 132.44C524.403 128.6 523.79 125.107 523.576 121.96C523.363 118.813 523.256 116.52 523.256 115.08V66.6H545.336V107.4C545.336 109.373 545.443 111.907 545.656 115C545.87 118.04 546.536 121.107 547.656 124.2C548.776 127.293 550.59 129.88 553.096 131.96C555.656 134.04 559.256 135.08 563.896 135.08C565.763 135.08 567.763 134.787 569.896 134.2C572.03 133.613 574.03 132.493 575.896 130.84C577.763 129.133 579.283 126.653 580.456 123.4C581.683 120.093 582.296 115.773 582.296 110.44L594.776 116.36C594.776 123.187 593.39 129.587 590.616 135.56C587.843 141.533 583.656 146.36 578.056 150.04C572.51 153.72 565.496 155.56 557.016 155.56ZM585.016 153V124.36H582.296V66.6H604.216V153H585.016Z"/>
<path d="M730.575 153V101.96C730.575 96.2534 729.215 91.8267 726.495 88.68C723.828 85.48 720.122 83.88 715.375 83.88C712.335 83.88 709.695 84.6 707.455 86.04C705.215 87.4267 703.455 89.4 702.175 91.96C700.948 94.4667 700.335 97.3734 700.335 100.68L691.215 94.6C691.215 88.68 692.602 83.4534 695.375 78.92C698.202 74.3867 701.962 70.8667 706.655 68.36C711.402 65.8 716.655 64.52 722.415 64.52C732.282 64.52 739.722 67.4534 744.735 73.32C749.802 79.1334 752.335 86.76 752.335 96.2V153H730.575ZM626.415 153V66.6H645.615V95.24H648.335V153H626.415ZM678.575 153V101.96C678.575 96.2534 677.215 91.8267 674.495 88.68C671.828 85.48 668.122 83.88 663.375 83.88C658.842 83.88 655.188 85.4534 652.415 88.6C649.695 91.6934 648.335 95.72 648.335 100.68L639.215 94.28C639.215 88.6267 640.628 83.56 643.455 79.08C646.282 74.6 650.068 71.0534 654.815 68.44C659.615 65.8267 664.975 64.52 670.895 64.52C677.668 64.52 683.215 65.96 687.535 68.84C691.908 71.72 695.135 75.56 697.215 80.36C699.295 85.16 700.335 90.44 700.335 96.2V153H678.575Z"/>
<path d="M805.298 155.56C798.524 155.56 793.004 154.413 788.738 152.12C784.471 149.827 781.138 146.92 778.738 143.4C776.391 139.88 774.711 136.227 773.698 132.44C772.684 128.6 772.071 125.107 771.858 121.96C771.644 118.813 771.538 116.52 771.538 115.08V66.6H793.618V107.4C793.618 109.373 793.724 111.907 793.938 115C794.151 118.04 794.818 121.107 795.938 124.2C797.057 127.293 798.871 129.88 801.378 131.96C803.938 134.04 807.538 135.08 812.178 135.08C814.044 135.08 816.044 134.787 818.178 134.2C820.311 133.613 822.311 132.493 824.178 130.84C826.044 129.133 827.564 126.653 828.738 123.4C829.964 120.093 830.578 115.773 830.578 110.44L843.058 116.36C843.058 123.187 841.671 129.587 838.898 135.56C836.124 141.533 831.938 146.36 826.338 150.04C820.791 153.72 813.778 155.56 805.298 155.56ZM833.298 153V124.36H830.578V66.6H852.498V153H833.298Z"/>
<path d="M908.616 155.4C897.736 155.4 888.936 152.947 882.216 148.04C875.55 143.08 871.496 136.093 870.056 127.08L892.296 123.72C893.203 127.773 895.203 130.947 898.296 133.24C901.443 135.533 905.416 136.68 910.216 136.68C914.163 136.68 917.203 135.933 919.336 134.44C921.47 132.893 922.536 130.76 922.536 128.04C922.536 126.333 922.11 124.973 921.256 123.96C920.403 122.893 918.483 121.853 915.496 120.84C912.563 119.827 907.976 118.493 901.736 116.84C894.696 115.027 889.07 113 884.856 110.76C880.643 108.52 877.603 105.853 875.736 102.76C873.87 99.6134 872.936 95.8267 872.936 91.4C872.936 85.8534 874.35 81.0534 877.176 77C880.003 72.8934 883.976 69.7467 889.096 67.56C894.27 65.32 900.35 64.2 907.336 64.2C914.11 64.2 920.11 65.24 925.336 67.32C930.563 69.4 934.776 72.36 937.976 76.2C941.23 80.04 943.23 84.5734 943.976 89.8L921.736 93.8C921.363 90.6 919.976 88.0667 917.576 86.2C915.176 84.3334 911.923 83.24 907.816 82.92C903.816 82.6534 900.59 83.1867 898.136 84.52C895.736 85.8534 894.536 87.7734 894.536 90.28C894.536 91.7734 895.043 93.0267 896.056 94.04C897.123 95.0534 899.283 96.0934 902.536 97.16C905.843 98.2267 910.856 99.6134 917.576 101.32C924.136 103.027 929.39 105.027 933.336 107.32C937.336 109.56 940.243 112.28 942.056 115.48C943.87 118.627 944.776 122.44 944.776 126.92C944.776 135.773 941.576 142.733 935.176 147.8C928.776 152.867 919.923 155.4 908.616 155.4Z"/>
</mask>
<path d="M173.065 223C165.3 223 158.335 218.224 155.538 210.98C152.74 203.737 145.776 198.961 138.011 198.961H109.667C94.6506 198.961 84.1302 184.135 89.0883 169.961L89.8961 167.652C92.4717 160.289 99.4199 155.359 107.22 155.359C120.112 155.359 128.986 142.417 124.341 130.392L92.7081 48.5025C84.2419 26.586 100.416 3 123.91 3C137.602 3 149.912 11.3444 154.982 24.063L215.554 176.007C224.531 198.528 207.942 223 183.698 223H173.065ZM35.713 223C12.904 223 -2.89063 200.227 5.10154 178.864L38.2823 90.1723C48.2585 63.506 85.9903 63.5424 95.9151 90.2279C98.3444 96.7599 98.4833 103.923 96.3091 110.545L66.7652 200.513C62.3594 213.93 49.8348 223 35.713 223Z" fill="white"/>
<path d="M271.2 155.4C265.013 155.4 259.76 154.227 255.44 151.88C251.173 149.48 247.92 146.307 245.68 142.36C243.493 138.36 242.4 133.96 242.4 129.16C242.4 125.16 243.013 121.507 244.24 118.2C245.467 114.893 247.44 111.987 250.16 109.48C252.933 106.92 256.64 104.787 261.28 103.08C264.48 101.907 268.293 100.867 272.72 99.96C277.147 99.0534 282.16 98.2 287.76 97.4C293.36 96.5467 299.52 95.6134 306.24 94.6L298.4 98.92C298.4 93.8 297.173 90.04 294.72 87.64C292.267 85.24 288.16 84.04 282.4 84.04C279.2 84.04 275.867 84.8134 272.4 86.36C268.933 87.9067 266.507 90.6534 265.12 94.6L245.44 88.36C247.627 81.2134 251.733 75.4 257.76 70.92C263.787 66.44 272 64.2 282.4 64.2C290.027 64.2 296.8 65.3734 302.72 67.72C308.64 70.0667 313.12 74.12 316.16 79.88C317.867 83.08 318.88 86.28 319.2 89.48C319.52 92.68 319.68 96.2534 319.68 100.2V153H300.64V135.24L303.36 138.92C299.147 144.733 294.587 148.947 289.68 151.56C284.827 154.12 278.667 155.4 271.2 155.4ZM275.84 138.28C279.84 138.28 283.2 137.587 285.92 136.2C288.693 134.76 290.88 133.133 292.48 131.32C294.133 129.507 295.253 127.987 295.84 126.76C296.96 124.413 297.6 121.693 297.76 118.6C297.973 115.453 298.08 112.84 298.08 110.76L304.48 112.36C298.027 113.427 292.8 114.333 288.8 115.08C284.8 115.773 281.573 116.413 279.12 117C276.667 117.587 274.507 118.227 272.64 118.92C270.507 119.773 268.773 120.707 267.44 121.72C266.16 122.68 265.2 123.747 264.56 124.92C263.973 126.093 263.68 127.4 263.68 128.84C263.68 130.813 264.16 132.52 265.12 133.96C266.133 135.347 267.547 136.413 269.36 137.16C271.173 137.907 273.333 138.28 275.84 138.28Z" fill="white"/>
<path d="M342.081 153V35.4H363.841V153H342.081Z" fill="white"/>
<path d="M439.665 153C433.692 154.12 427.825 154.6 422.065 154.44C416.358 154.333 411.238 153.347 406.705 151.48C402.225 149.56 398.812 146.493 396.465 142.28C394.332 138.333 393.212 134.333 393.105 130.28C392.998 126.173 392.945 121.533 392.945 116.36V42.6H414.705V115.08C414.705 118.44 414.732 121.48 414.785 124.2C414.892 126.867 415.452 129 416.465 130.6C418.385 133.64 421.452 135.293 425.665 135.56C429.878 135.827 434.545 135.613 439.665 134.92V153ZM378.225 83.4V66.6H439.665V83.4H378.225Z" fill="white"/>
<path d="M458.919 153V66.6H478.119V87.72L476.039 85C477.159 82.0134 478.652 79.2934 480.519 76.84C482.385 74.3867 484.679 72.36 487.399 70.76C489.479 69.48 491.745 68.4934 494.199 67.8C496.652 67.0534 499.185 66.6 501.799 66.44C504.412 66.2267 507.025 66.28 509.639 66.6V86.92C507.239 86.1734 504.439 85.9334 501.239 86.2C498.092 86.4134 495.239 87.1334 492.679 88.36C490.119 89.5334 487.959 91.1067 486.199 93.08C484.439 95 483.105 97.2934 482.199 99.96C481.292 102.573 480.839 105.533 480.839 108.84V153H458.919Z" fill="white"/>
<path d="M557.016 155.56C550.243 155.56 544.723 154.413 540.456 152.12C536.19 149.827 532.856 146.92 530.456 143.4C528.11 139.88 526.43 136.227 525.416 132.44C524.403 128.6 523.79 125.107 523.576 121.96C523.363 118.813 523.256 116.52 523.256 115.08V66.6H545.336V107.4C545.336 109.373 545.443 111.907 545.656 115C545.87 118.04 546.536 121.107 547.656 124.2C548.776 127.293 550.59 129.88 553.096 131.96C555.656 134.04 559.256 135.08 563.896 135.08C565.763 135.08 567.763 134.787 569.896 134.2C572.03 133.613 574.03 132.493 575.896 130.84C577.763 129.133 579.283 126.653 580.456 123.4C581.683 120.093 582.296 115.773 582.296 110.44L594.776 116.36C594.776 123.187 593.39 129.587 590.616 135.56C587.843 141.533 583.656 146.36 578.056 150.04C572.51 153.72 565.496 155.56 557.016 155.56ZM585.016 153V124.36H582.296V66.6H604.216V153H585.016Z" fill="white"/>
<path d="M730.575 153V101.96C730.575 96.2534 729.215 91.8267 726.495 88.68C723.828 85.48 720.122 83.88 715.375 83.88C712.335 83.88 709.695 84.6 707.455 86.04C705.215 87.4267 703.455 89.4 702.175 91.96C700.948 94.4667 700.335 97.3734 700.335 100.68L691.215 94.6C691.215 88.68 692.602 83.4534 695.375 78.92C698.202 74.3867 701.962 70.8667 706.655 68.36C711.402 65.8 716.655 64.52 722.415 64.52C732.282 64.52 739.722 67.4534 744.735 73.32C749.802 79.1334 752.335 86.76 752.335 96.2V153H730.575ZM626.415 153V66.6H645.615V95.24H648.335V153H626.415ZM678.575 153V101.96C678.575 96.2534 677.215 91.8267 674.495 88.68C671.828 85.48 668.122 83.88 663.375 83.88C658.842 83.88 655.188 85.4534 652.415 88.6C649.695 91.6934 648.335 95.72 648.335 100.68L639.215 94.28C639.215 88.6267 640.628 83.56 643.455 79.08C646.282 74.6 650.068 71.0534 654.815 68.44C659.615 65.8267 664.975 64.52 670.895 64.52C677.668 64.52 683.215 65.96 687.535 68.84C691.908 71.72 695.135 75.56 697.215 80.36C699.295 85.16 700.335 90.44 700.335 96.2V153H678.575Z" fill="white"/>
<path d="M805.298 155.56C798.524 155.56 793.004 154.413 788.738 152.12C784.471 149.827 781.138 146.92 778.738 143.4C776.391 139.88 774.711 136.227 773.698 132.44C772.684 128.6 772.071 125.107 771.858 121.96C771.644 118.813 771.538 116.52 771.538 115.08V66.6H793.618V107.4C793.618 109.373 793.724 111.907 793.938 115C794.151 118.04 794.818 121.107 795.938 124.2C797.057 127.293 798.871 129.88 801.378 131.96C803.938 134.04 807.538 135.08 812.178 135.08C814.044 135.08 816.044 134.787 818.178 134.2C820.311 133.613 822.311 132.493 824.178 130.84C826.044 129.133 827.564 126.653 828.738 123.4C829.964 120.093 830.578 115.773 830.578 110.44L843.058 116.36C843.058 123.187 841.671 129.587 838.898 135.56C836.124 141.533 831.938 146.36 826.338 150.04C820.791 153.72 813.778 155.56 805.298 155.56ZM833.298 153V124.36H830.578V66.6H852.498V153H833.298Z" fill="white"/>
<path d="M908.616 155.4C897.736 155.4 888.936 152.947 882.216 148.04C875.55 143.08 871.496 136.093 870.056 127.08L892.296 123.72C893.203 127.773 895.203 130.947 898.296 133.24C901.443 135.533 905.416 136.68 910.216 136.68C914.163 136.68 917.203 135.933 919.336 134.44C921.47 132.893 922.536 130.76 922.536 128.04C922.536 126.333 922.11 124.973 921.256 123.96C920.403 122.893 918.483 121.853 915.496 120.84C912.563 119.827 907.976 118.493 901.736 116.84C894.696 115.027 889.07 113 884.856 110.76C880.643 108.52 877.603 105.853 875.736 102.76C873.87 99.6134 872.936 95.8267 872.936 91.4C872.936 85.8534 874.35 81.0534 877.176 77C880.003 72.8934 883.976 69.7467 889.096 67.56C894.27 65.32 900.35 64.2 907.336 64.2C914.11 64.2 920.11 65.24 925.336 67.32C930.563 69.4 934.776 72.36 937.976 76.2C941.23 80.04 943.23 84.5734 943.976 89.8L921.736 93.8C921.363 90.6 919.976 88.0667 917.576 86.2C915.176 84.3334 911.923 83.24 907.816 82.92C903.816 82.6534 900.59 83.1867 898.136 84.52C895.736 85.8534 894.536 87.7734 894.536 90.28C894.536 91.7734 895.043 93.0267 896.056 94.04C897.123 95.0534 899.283 96.0934 902.536 97.16C905.843 98.2267 910.856 99.6134 917.576 101.32C924.136 103.027 929.39 105.027 933.336 107.32C937.336 109.56 940.243 112.28 942.056 115.48C943.87 118.627 944.776 122.44 944.776 126.92C944.776 135.773 941.576 142.733 935.176 147.8C928.776 152.867 919.923 155.4 908.616 155.4Z" fill="white"/>
<path d="M173.065 223C165.3 223 158.335 218.224 155.538 210.98C152.74 203.737 145.776 198.961 138.011 198.961H109.667C94.6506 198.961 84.1302 184.135 89.0883 169.961L89.8961 167.652C92.4717 160.289 99.4199 155.359 107.22 155.359C120.112 155.359 128.986 142.417 124.341 130.392L92.7081 48.5025C84.2419 26.586 100.416 3 123.91 3C137.602 3 149.912 11.3444 154.982 24.063L215.554 176.007C224.531 198.528 207.942 223 183.698 223H173.065ZM35.713 223C12.904 223 -2.89063 200.227 5.10154 178.864L38.2823 90.1723C48.2585 63.506 85.9903 63.5424 95.9151 90.2279C98.3444 96.7599 98.4833 103.923 96.3091 110.545L66.7652 200.513C62.3594 213.93 49.8348 223 35.713 223Z" stroke="white" stroke-width="6" mask="url(#path-1-outside-1_33_12)"/>
<path d="M271.2 155.4C265.013 155.4 259.76 154.227 255.44 151.88C251.173 149.48 247.92 146.307 245.68 142.36C243.493 138.36 242.4 133.96 242.4 129.16C242.4 125.16 243.013 121.507 244.24 118.2C245.467 114.893 247.44 111.987 250.16 109.48C252.933 106.92 256.64 104.787 261.28 103.08C264.48 101.907 268.293 100.867 272.72 99.96C277.147 99.0534 282.16 98.2 287.76 97.4C293.36 96.5467 299.52 95.6134 306.24 94.6L298.4 98.92C298.4 93.8 297.173 90.04 294.72 87.64C292.267 85.24 288.16 84.04 282.4 84.04C279.2 84.04 275.867 84.8134 272.4 86.36C268.933 87.9067 266.507 90.6534 265.12 94.6L245.44 88.36C247.627 81.2134 251.733 75.4 257.76 70.92C263.787 66.44 272 64.2 282.4 64.2C290.027 64.2 296.8 65.3734 302.72 67.72C308.64 70.0667 313.12 74.12 316.16 79.88C317.867 83.08 318.88 86.28 319.2 89.48C319.52 92.68 319.68 96.2534 319.68 100.2V153H300.64V135.24L303.36 138.92C299.147 144.733 294.587 148.947 289.68 151.56C284.827 154.12 278.667 155.4 271.2 155.4ZM275.84 138.28C279.84 138.28 283.2 137.587 285.92 136.2C288.693 134.76 290.88 133.133 292.48 131.32C294.133 129.507 295.253 127.987 295.84 126.76C296.96 124.413 297.6 121.693 297.76 118.6C297.973 115.453 298.08 112.84 298.08 110.76L304.48 112.36C298.027 113.427 292.8 114.333 288.8 115.08C284.8 115.773 281.573 116.413 279.12 117C276.667 117.587 274.507 118.227 272.64 118.92C270.507 119.773 268.773 120.707 267.44 121.72C266.16 122.68 265.2 123.747 264.56 124.92C263.973 126.093 263.68 127.4 263.68 128.84C263.68 130.813 264.16 132.52 265.12 133.96C266.133 135.347 267.547 136.413 269.36 137.16C271.173 137.907 273.333 138.28 275.84 138.28Z" stroke="white" stroke-width="6" mask="url(#path-1-outside-1_33_12)"/>
<path d="M342.081 153V35.4H363.841V153H342.081Z" stroke="white" stroke-width="6" mask="url(#path-1-outside-1_33_12)"/>
<path d="M439.665 153C433.692 154.12 427.825 154.6 422.065 154.44C416.358 154.333 411.238 153.347 406.705 151.48C402.225 149.56 398.812 146.493 396.465 142.28C394.332 138.333 393.212 134.333 393.105 130.28C392.998 126.173 392.945 121.533 392.945 116.36V42.6H414.705V115.08C414.705 118.44 414.732 121.48 414.785 124.2C414.892 126.867 415.452 129 416.465 130.6C418.385 133.64 421.452 135.293 425.665 135.56C429.878 135.827 434.545 135.613 439.665 134.92V153ZM378.225 83.4V66.6H439.665V83.4H378.225Z" stroke="white" stroke-width="6" mask="url(#path-1-outside-1_33_12)"/>
<path d="M458.919 153V66.6H478.119V87.72L476.039 85C477.159 82.0134 478.652 79.2934 480.519 76.84C482.385 74.3867 484.679 72.36 487.399 70.76C489.479 69.48 491.745 68.4934 494.199 67.8C496.652 67.0534 499.185 66.6 501.799 66.44C504.412 66.2267 507.025 66.28 509.639 66.6V86.92C507.239 86.1734 504.439 85.9334 501.239 86.2C498.092 86.4134 495.239 87.1334 492.679 88.36C490.119 89.5334 487.959 91.1067 486.199 93.08C484.439 95 483.105 97.2934 482.199 99.96C481.292 102.573 480.839 105.533 480.839 108.84V153H458.919Z" stroke="white" stroke-width="6" mask="url(#path-1-outside-1_33_12)"/>
<path d="M557.016 155.56C550.243 155.56 544.723 154.413 540.456 152.12C536.19 149.827 532.856 146.92 530.456 143.4C528.11 139.88 526.43 136.227 525.416 132.44C524.403 128.6 523.79 125.107 523.576 121.96C523.363 118.813 523.256 116.52 523.256 115.08V66.6H545.336V107.4C545.336 109.373 545.443 111.907 545.656 115C545.87 118.04 546.536 121.107 547.656 124.2C548.776 127.293 550.59 129.88 553.096 131.96C555.656 134.04 559.256 135.08 563.896 135.08C565.763 135.08 567.763 134.787 569.896 134.2C572.03 133.613 574.03 132.493 575.896 130.84C577.763 129.133 579.283 126.653 580.456 123.4C581.683 120.093 582.296 115.773 582.296 110.44L594.776 116.36C594.776 123.187 593.39 129.587 590.616 135.56C587.843 141.533 583.656 146.36 578.056 150.04C572.51 153.72 565.496 155.56 557.016 155.56ZM585.016 153V124.36H582.296V66.6H604.216V153H585.016Z" stroke="white" stroke-width="6" mask="url(#path-1-outside-1_33_12)"/>
<path d="M730.575 153V101.96C730.575 96.2534 729.215 91.8267 726.495 88.68C723.828 85.48 720.122 83.88 715.375 83.88C712.335 83.88 709.695 84.6 707.455 86.04C705.215 87.4267 703.455 89.4 702.175 91.96C700.948 94.4667 700.335 97.3734 700.335 100.68L691.215 94.6C691.215 88.68 692.602 83.4534 695.375 78.92C698.202 74.3867 701.962 70.8667 706.655 68.36C711.402 65.8 716.655 64.52 722.415 64.52C732.282 64.52 739.722 67.4534 744.735 73.32C749.802 79.1334 752.335 86.76 752.335 96.2V153H730.575ZM626.415 153V66.6H645.615V95.24H648.335V153H626.415ZM678.575 153V101.96C678.575 96.2534 677.215 91.8267 674.495 88.68C671.828 85.48 668.122 83.88 663.375 83.88C658.842 83.88 655.188 85.4534 652.415 88.6C649.695 91.6934 648.335 95.72 648.335 100.68L639.215 94.28C639.215 88.6267 640.628 83.56 643.455 79.08C646.282 74.6 650.068 71.0534 654.815 68.44C659.615 65.8267 664.975 64.52 670.895 64.52C677.668 64.52 683.215 65.96 687.535 68.84C691.908 71.72 695.135 75.56 697.215 80.36C699.295 85.16 700.335 90.44 700.335 96.2V153H678.575Z" stroke="white" stroke-width="6" mask="url(#path-1-outside-1_33_12)"/>
<path d="M805.298 155.56C798.524 155.56 793.004 154.413 788.738 152.12C784.471 149.827 781.138 146.92 778.738 143.4C776.391 139.88 774.711 136.227 773.698 132.44C772.684 128.6 772.071 125.107 771.858 121.96C771.644 118.813 771.538 116.52 771.538 115.08V66.6H793.618V107.4C793.618 109.373 793.724 111.907 793.938 115C794.151 118.04 794.818 121.107 795.938 124.2C797.057 127.293 798.871 129.88 801.378 131.96C803.938 134.04 807.538 135.08 812.178 135.08C814.044 135.08 816.044 134.787 818.178 134.2C820.311 133.613 822.311 132.493 824.178 130.84C826.044 129.133 827.564 126.653 828.738 123.4C829.964 120.093 830.578 115.773 830.578 110.44L843.058 116.36C843.058 123.187 841.671 129.587 838.898 135.56C836.124 141.533 831.938 146.36 826.338 150.04C820.791 153.72 813.778 155.56 805.298 155.56ZM833.298 153V124.36H830.578V66.6H852.498V153H833.298Z" stroke="white" stroke-width="6" mask="url(#path-1-outside-1_33_12)"/>
<path d="M908.616 155.4C897.736 155.4 888.936 152.947 882.216 148.04C875.55 143.08 871.496 136.093 870.056 127.08L892.296 123.72C893.203 127.773 895.203 130.947 898.296 133.24C901.443 135.533 905.416 136.68 910.216 136.68C914.163 136.68 917.203 135.933 919.336 134.44C921.47 132.893 922.536 130.76 922.536 128.04C922.536 126.333 922.11 124.973 921.256 123.96C920.403 122.893 918.483 121.853 915.496 120.84C912.563 119.827 907.976 118.493 901.736 116.84C894.696 115.027 889.07 113 884.856 110.76C880.643 108.52 877.603 105.853 875.736 102.76C873.87 99.6134 872.936 95.8267 872.936 91.4C872.936 85.8534 874.35 81.0534 877.176 77C880.003 72.8934 883.976 69.7467 889.096 67.56C894.27 65.32 900.35 64.2 907.336 64.2C914.11 64.2 920.11 65.24 925.336 67.32C930.563 69.4 934.776 72.36 937.976 76.2C941.23 80.04 943.23 84.5734 943.976 89.8L921.736 93.8C921.363 90.6 919.976 88.0667 917.576 86.2C915.176 84.3334 911.923 83.24 907.816 82.92C903.816 82.6534 900.59 83.1867 898.136 84.52C895.736 85.8534 894.536 87.7734 894.536 90.28C894.536 91.7734 895.043 93.0267 896.056 94.04C897.123 95.0534 899.283 96.0934 902.536 97.16C905.843 98.2267 910.856 99.6134 917.576 101.32C924.136 103.027 929.39 105.027 933.336 107.32C937.336 109.56 940.243 112.28 942.056 115.48C943.87 118.627 944.776 122.44 944.776 126.92C944.776 135.773 941.576 142.733 935.176 147.8C928.776 152.867 919.923 155.4 908.616 155.4Z" stroke="white" stroke-width="6" mask="url(#path-1-outside-1_33_12)"/>
</svg>
